<svg width="20" height="20" viewBox="0 0 20 20" fill="none" xmlns="http://www.w3.org/2000/svg">
<g clip-path="url(#clip0_296_95)">
<mask id="mask0_296_95" style="mask-type:luminance" maskUnits="userSpaceOnUse" x="0" y="0" width="20" height="20">
<path d="M20 0H0V20H20V0Z" fill="white"/>
</mask>
<g mask="url(#mask0_296_95)">
<path d="M3.71 13.17C3.53 13.17 3.36 13.16 3.18 13.12C3.01 13.09 2.84 13.04 2.67 12.97C2.51 12.9 2.35 12.82 2.2 12.72C2.05 12.62 1.92 12.51 1.79 12.38C1.66 12.25 1.55 12.12 1.45 11.97C1.35 11.82 1.27 11.67 1.2 11.5C1.13 11.34 1.08 11.17 1.05 11C1.01 10.82 1 10.65 1 10.47V4.19004C1 4.02004 1.02 3.84004 1.06 3.67004C1.09 3.50004 1.15 3.33004 1.22 3.17004C1.29 3.01004 1.37 2.86004 1.47 2.71004C1.57 2.57004 1.68 2.43004 1.81 2.31004C1.93 2.19004 2.07 2.08004 2.22 1.98004C2.36 1.88004 2.52 1.80004 2.68 1.74004C2.84 1.67004 3.01 1.62004 3.19 1.59004C3.36 1.55004 3.53 1.54004 3.71 1.54004C3.89 1.54004 4.06 1.55004 4.23 1.59004C4.41 1.62004 4.57 1.67004 4.74 1.74004C4.9 1.80004 5.06 1.88004 5.2 1.98004C5.35 2.08004 5.49 2.19004 5.61 2.31004C5.74 2.43004 5.85 2.57004 5.95 2.71004C6.05 2.86004 6.13 3.01004 6.2 3.17004C6.27 3.33004 6.33 3.50004 6.36 3.67004C6.4 3.84004 6.42 4.02004 6.42 4.19004V10.47C6.42 10.65 6.41 10.82 6.37 11C6.34 11.17 6.28 11.34 6.22 11.5C6.15 11.67 6.06 11.82 5.97 11.97C5.87 12.12 5.75 12.25 5.63 12.38C5.5 12.51 5.36 12.62 5.22 12.72C5.07 12.82 4.91 12.9 4.75 12.97C4.58 13.04 4.41 13.09 4.24 13.12C4.06 13.16 3.89 13.17 3.71 13.17ZM3.71 3.14004C3.57 3.14004 3.43 3.16004 3.3 3.22004C3.17 3.27004 3.06 3.35004 2.96 3.45004C2.86 3.54004 2.78 3.66004 2.73 3.79004C2.67 3.92004 2.65 4.05004 2.64 4.20004V10.47C2.64 10.62 2.66 10.75 2.72 10.89C2.77 11.02 2.85 11.14 2.95 11.24C3.05 11.34 3.16 11.42 3.29 11.48C3.43 11.54 3.57 11.56 3.71 11.56C3.85 11.56 3.99 11.54 4.12 11.48C4.26 11.42 4.37 11.34 4.47 11.24C4.57 11.14 4.65 11.02 4.7 10.89C4.75 10.75 4.78 10.62 4.77 10.47V4.20004C4.77 4.05004 4.75 3.92004 4.69 3.79004C4.64 3.66004 4.56 3.54004 4.46 3.44004C4.36 3.34004 4.25 3.27004 4.12 3.21004C3.99 3.16004 3.85 3.14004 3.71 3.14004Z" fill="#ABB2BD"/>
<path d="M9.09002 18.95C9.04002 18.95 8.99002 18.95 8.93002 18.95C8.75002 18.93 8.57002 18.89 8.40002 18.83C8.23002 18.77 8.07002 18.69 7.92002 18.58C7.78002 18.48 7.64002 18.35 7.53002 18.21C7.42002 18.07 7.32002 17.92 7.25002 17.75L5.31002 13.26C4.95002 12.44 4.77002 11.58 4.77002 10.69V4.61C4.77002 4.37 4.80002 4.14 4.84002 3.9C4.89002 3.67 4.96002 3.45 5.05002 3.23C5.14002 3.01 5.25002 2.8 5.39002 2.6C5.52002 2.4 5.67002 2.22 5.84002 2.05C6.01002 1.89 6.19002 1.74 6.39002 1.61C6.58002 1.47 6.79002 1.36 7.01002 1.27C7.23002 1.18 7.46002 1.11 7.69002 1.07C7.93002 1.02 8.16002 1 8.40002 1H11.24C11.71 1 12.18 1.05 12.64 1.16C13.1 1.28 13.54 1.44 13.97 1.66C14.39 1.88 14.78 2.14 15.13 2.46C15.49 2.77 15.8 3.12 16.08 3.5L17.71 5.82C18.13 6.43 18.46 7.08 18.68 7.79C18.91 8.5 19.02 9.22 19.02 9.96C19.02 10.21 18.99 10.45 18.95 10.69C18.9 10.93 18.83 11.16 18.73 11.38C18.64 11.61 18.53 11.82 18.39 12.03C18.25 12.23 18.1 12.42 17.92 12.59C17.75 12.76 17.56 12.92 17.36 13.05C17.15 13.19 16.94 13.3 16.71 13.4C16.49 13.49 16.25 13.56 16.01 13.61C15.77 13.66 15.53 13.68 15.28 13.68H12.54C12.37 13.68 12.21 13.71 12.05 13.78C11.89 13.84 11.75 13.94 11.63 14.06C11.51 14.18 11.42 14.32 11.35 14.48C11.29 14.63 11.26 14.8 11.26 14.97V16.71C11.25 17.09 11.15 17.43 10.95 17.75L10.78 18.02C10.6 18.31 10.36 18.54 10.06 18.7C9.76002 18.87 9.43002 18.95 9.09002 18.95ZM8.40002 2.64C8.27002 2.64 8.14002 2.65 8.01002 2.68C7.88002 2.7 7.76002 2.74 7.64002 2.79C7.52002 2.84 7.41002 2.9 7.30002 2.97C7.19002 3.04 7.09002 3.12 7.00002 3.21C6.91002 3.31 6.83002 3.41 6.75002 3.51C6.68002 3.62 6.62002 3.73 6.57002 3.85C6.52002 3.97 6.48002 4.1 6.46002 4.22C6.43002 4.35 6.42002 4.48 6.42002 4.61V10.69C6.42002 11.35 6.55002 11.99 6.82002 12.6L8.76002 17.1C8.82002 17.23 8.92002 17.3 9.06002 17.31C9.20002 17.32 9.31002 17.26 9.39002 17.14L9.56002 16.87C9.59002 16.83 9.61002 16.77 9.61002 16.71V14.96C9.61002 14.77 9.63002 14.58 9.66002 14.39C9.70002 14.2 9.76002 14.02 9.83002 13.84C9.90002 13.66 10 13.5 10.1 13.34C10.21 13.18 10.33 13.03 10.47 12.89C10.6 12.76 10.75 12.63 10.91 12.53C11.07 12.42 11.24 12.33 11.42 12.26C11.6 12.18 11.78 12.13 11.97 12.09C12.16 12.05 12.35 12.03 12.55 12.03H15.28C15.42 12.03 15.56 12.02 15.69 11.99C15.82 11.97 15.96 11.93 16.08 11.87C16.21 11.82 16.33 11.76 16.44 11.68C16.56 11.61 16.66 11.52 16.76 11.42C16.85 11.33 16.94 11.22 17.02 11.11C17.09 11 17.16 10.88 17.21 10.75C17.26 10.62 17.3 10.5 17.33 10.36C17.35 10.23 17.37 10.09 17.37 9.96C17.37 9.38 17.28 8.83 17.11 8.28C16.94 7.74 16.69 7.23 16.36 6.76L14.73 4.44C14.53 4.16 14.3 3.91 14.04 3.69C13.79 3.46 13.51 3.27 13.2 3.11C12.9 2.96 12.58 2.84 12.25 2.76C11.92 2.68 11.58 2.63 11.24 2.63L8.40002 2.64Z" fill="#ABB2BD"/>
</g>
</g>
<defs>
<clipPath id="clip0_296_95">
<rect width="20" height="20" fill="white"/>
</clipPath>
</defs>
</svg>
