<svg width="18" height="18" viewBox="0 0 18 18" fill="none" xmlns="http://www.w3.org/2000/svg">
<g clip-path="url(#clip0_296_91)">
<path d="M2.5 18C1.837 18 1.202 17.706 0.733001 17.185C0.256195 16.6427 -0.00467519 15.9441 7.51897e-07 15.222V8.777C7.51897e-07 8.04 0.263001 7.334 0.732001 6.813C1.202 6.293 1.837 6 2.5 6C3.163 6 3.799 6.293 4.268 6.813C4.745 7.3555 5.00557 8.05464 5 8.777V15.222C5 15.959 4.736 16.665 4.267 17.185C3.798 17.706 3.163 17.999 2.5 18ZM2.5 7.692C2.36854 7.69341 2.23887 7.72255 2.11945 7.77752C2.00003 7.83249 1.89356 7.91205 1.807 8.011C1.624 8.215 1.52 8.491 1.52 8.781V15.226C1.52 15.514 1.623 15.791 1.807 15.996C1.991 16.2 2.24 16.315 2.5 16.316C2.76 16.315 3.01 16.2 3.193 15.996C3.376 15.791 3.48 15.514 3.48 15.226V8.78C3.48 8.637 3.455 8.495 3.406 8.363C3.35819 8.23274 3.28627 8.11264 3.194 8.009C3.10524 7.90917 2.99703 7.82853 2.876 7.772C2.75823 7.7171 2.62994 7.68844 2.5 7.688V7.692Z" fill="#ABB2BD"/>
<path d="M10.352 18H7.564C7.09468 17.9989 6.63028 17.9044 6.19782 17.7221C5.76536 17.5398 5.37348 17.2732 5.045 16.938C4.37514 16.2543 3.99998 15.3352 4 14.378V8.28104C4 7.39704 4.177 6.52103 4.523 5.70903L6.434 1.20703C6.576 0.873035 6.805 0.585035 7.096 0.373035C7.38602 0.162105 7.72861 0.0352812 8.08607 0.00652229C8.44353 -0.0222366 8.80199 0.0481847 9.122 0.210035C9.442 0.373035 9.712 0.621035 9.904 0.929035L10.075 1.20003C10.269 1.51204 10.373 1.87303 10.373 2.24103V3.99604C10.373 4.33704 10.507 4.66503 10.744 4.90603C10.982 5.14804 11.304 5.28403 11.64 5.28403H14.331C14.8142 5.28476 15.2924 5.3817 15.7378 5.56918C16.1832 5.75667 16.5867 6.03095 16.925 6.37603C17.6155 7.08034 18.0015 8.02774 18 9.01404C18.0034 10.4953 17.554 11.9423 16.712 13.161L15.11 15.486C14.5768 16.2601 13.8646 16.8941 13.034 17.334C12.2077 17.7713 11.2869 18 10.352 18ZM8.245 1.64803H8.215C8.15086 1.65114 8.08901 1.67284 8.03699 1.71048C7.98496 1.74812 7.94501 1.80009 7.922 1.86003L6.012 6.36003C5.7536 6.96711 5.62093 7.62026 5.622 8.28004V14.375C5.622 14.899 5.827 15.401 6.191 15.771C6.555 16.141 7.049 16.35 7.564 16.351H10.352C11.024 16.35 11.687 16.185 12.283 15.87C12.8812 15.5528 13.3941 15.0959 13.778 14.538L15.381 12.214C16.0304 11.2731 16.3772 10.1563 16.375 9.01303C16.3756 8.4627 16.1602 7.93413 15.775 7.54103C15.5863 7.34829 15.361 7.19507 15.1124 7.09034C14.8638 6.9856 14.5968 6.93145 14.327 6.93104H11.636C10.87 6.93004 10.136 6.62104 9.594 6.07003C9.05097 5.51588 8.74687 4.7709 8.747 3.99503V2.24103C8.74723 2.18441 8.73127 2.12889 8.701 2.08104L8.531 1.80903C8.5011 1.76004 8.45907 1.71957 8.40897 1.69155C8.35888 1.66352 8.3024 1.64888 8.245 1.64903V1.64803Z" fill="#ABB2BD"/>
</g>
<defs>
<clipPath id="clip0_296_91">
<rect width="18" height="18" fill="white"/>
</clipPath>
</defs>
</svg>
