<svg width="175" height="32" viewBox="0 0 175 32" fill="none" xmlns="http://www.w3.org/2000/svg">
<g clip-path="url(#clip0_296_41)">
<path d="M77.32 25.2299H74.83V21.3699H77.32C78.86 21.3699 80.42 20.9899 81.43 19.9199C82.44 18.8499 82.81 17.1999 82.81 15.5699C82.81 13.9399 82.44 12.2999 81.43 11.2299C80.42 10.1599 78.86 9.77992 77.32 9.77992C75.77 9.77992 74.22 10.1599 73.21 11.2299C72.19 12.2999 71.83 13.9399 71.83 15.5699V31.4399H67.46V5.91992H71.83V7.53992H72.63C72.71 7.44992 72.8 7.35992 72.9 7.26992C73.99 6.26992 75.66 5.91992 77.32 5.91992C79.89 5.91992 82.48 6.55992 84.17 8.33992C85.85 10.1199 86.46 12.8599 86.46 15.5799C86.46 18.2899 85.85 21.0299 84.17 22.8099C82.48 24.5999 79.89 25.2299 77.32 25.2299Z" fill="#ABB2BD"/>
<path d="M10.79 6.58989H13.28V10.4499H10.79C9.25002 10.4499 7.69002 10.8299 6.68002 11.9099C5.67002 12.9799 5.30002 14.6199 5.30002 16.2499C5.30002 17.8799 5.67002 19.5199 6.68002 20.5899C7.69002 21.6599 9.25002 22.0499 10.79 22.0499C12.34 22.0499 13.89 21.6599 14.9 20.5899C15.92 19.5199 16.28 17.8799 16.28 16.2499V0.389893H20.65V25.9099H16.28V24.2799H15.48C15.4 24.3799 15.31 24.4699 15.21 24.5499C14.12 25.5499 12.45 25.9099 10.79 25.9099C8.22003 25.9099 5.63002 25.2699 3.94002 23.4799C2.26002 21.6999 1.65002 18.9699 1.65002 16.2499C1.65002 13.5299 2.26002 10.7999 3.94002 9.00989C5.63002 7.22989 8.22003 6.58989 10.79 6.58989Z" fill="#ABB2BD"/>
<path d="M42.59 15.9099V17.4599H30.95V14.3599H38.67C38.49 13.2299 38.08 12.1799 37.36 11.4199C36.3 10.3099 34.69 9.90992 33.08 9.90992C31.48 9.90992 29.86 10.3099 28.81 11.4199C27.76 12.5199 27.38 14.2199 27.38 15.9099C27.38 17.5999 27.76 19.2999 28.81 20.4099C29.86 21.5199 31.48 21.9099 33.08 21.9099C34.69 21.9099 36.3 21.5199 37.36 20.4099C37.5 20.2499 37.64 20.0799 37.76 19.8999H42.08C41.71 21.2399 41.1 22.4499 40.2 23.3999C38.44 25.2499 35.75 25.9099 33.08 25.9099C30.41 25.9099 27.72 25.2499 25.97 23.3999C24.21 21.5499 23.58 18.7199 23.58 15.9099C23.58 13.0999 24.21 10.2699 25.97 8.41992C27.72 6.57992 30.41 5.91992 33.08 5.91992C35.75 5.91992 38.44 6.57992 40.2 8.41992C41.96 10.2699 42.59 13.0999 42.59 15.9099Z" fill="#ABB2BD"/>
<path d="M64.52 15.9099V17.4599H52.88V14.3599H60.61C60.43 13.2299 60.02 12.1799 59.29 11.4199C58.24 10.3099 56.63 9.90992 55.02 9.90992C53.42 9.90992 51.8 10.3099 50.75 11.4199C49.7 12.5199 49.32 14.2199 49.32 15.9099C49.32 17.5999 49.7 19.2999 50.75 20.4099C51.8 21.5199 53.42 21.9099 55.02 21.9099C56.63 21.9099 58.24 21.5199 59.29 20.4099C59.44 20.2499 59.58 20.0799 59.7 19.8999H64.02C63.64 21.2399 63.04 22.4499 62.14 23.3999C60.38 25.2499 57.69 25.9099 55.02 25.9099C52.35 25.9099 49.66 25.2499 47.9 23.3999C46.15 21.5499 45.52 18.7199 45.52 15.9099C45.52 13.0999 46.15 10.2699 47.9 8.41992C49.66 6.57992 52.35 5.91992 55.02 5.91992C57.69 5.91992 60.38 6.57992 62.14 8.41992C63.89 10.2699 64.52 13.0999 64.52 15.9099Z" fill="#ABB2BD"/>
<path d="M98.9 25.9099C101.57 25.9099 104.26 25.5199 106.01 24.4299C107.77 23.3399 108.4 21.6699 108.4 20.0099C108.4 18.3499 107.77 16.6799 106.01 15.5899C104.26 14.4999 101.57 14.1099 98.9 14.1099H98.99C97.85 14.1099 96.7 13.9599 95.96 13.5299C95.21 13.1099 94.94 12.4599 94.94 11.8199C94.94 11.1699 95.21 10.5299 95.96 10.0999C96.7 9.67992 97.85 9.52992 98.99 9.52992C100.13 9.52992 101.28 9.67992 102.03 10.0999C102.78 10.5299 103.04 11.1699 103.04 11.8199H107.49C107.49 10.1599 106.92 8.48992 105.34 7.39992C103.75 6.30992 101.32 5.91992 98.9 5.91992C96.48 5.91992 94.05 6.30992 92.46 7.39992C90.87 8.48992 90.3 10.1599 90.3 11.8199C90.3 13.4799 90.87 15.1499 92.46 16.2399C94.05 17.3299 96.48 17.7199 98.9 17.7199C100.16 17.7199 101.53 17.8699 102.36 18.2899C103.19 18.7099 103.48 19.3599 103.48 20.0099C103.48 20.6499 103.19 21.2999 102.36 21.7199C101.53 22.1399 100.26 22.2999 99 22.2999C97.74 22.2999 96.47 22.1399 95.65 21.7199C94.82 21.2999 94.52 20.6499 94.52 20.0099H89.4C89.4 21.6699 90.03 23.3399 91.78 24.4299C93.54 25.5199 96.22 25.9099 98.9 25.9099Z" fill="#ABB2BD"/>
<path d="M130.33 15.9099V17.4599H118.69V14.3599H126.42C126.24 13.2299 125.83 12.1799 125.1 11.4199C124.05 10.3099 122.44 9.90992 120.83 9.90992C119.23 9.90992 117.61 10.3099 116.56 11.4199C115.51 12.5199 115.13 14.2199 115.13 15.9099C115.13 17.5999 115.51 19.2999 116.56 20.4099C117.61 21.5199 119.23 21.9099 120.83 21.9099C122.44 21.9099 124.05 21.5199 125.1 20.4099C125.25 20.2499 125.39 20.0799 125.51 19.8999H129.83C129.45 21.2399 128.85 22.4499 127.95 23.3999C126.19 25.2499 123.5 25.9099 120.83 25.9099C118.16 25.9099 115.47 25.2499 113.71 23.3999C111.96 21.5499 111.33 18.7199 111.33 15.9099C111.33 13.0999 111.96 10.2699 113.71 8.41992C115.47 6.57992 118.16 5.91992 120.83 5.91992C123.5 5.91992 126.19 6.57992 127.95 8.41992C129.7 10.2699 130.33 13.0999 130.33 15.9099Z" fill="#ABB2BD"/>
<path d="M152.27 15.9099V17.4599H140.63V14.3599H148.36C148.17 13.2299 147.77 12.1799 147.04 11.4199C145.99 10.3099 144.37 9.90992 142.77 9.90992C141.17 9.90992 139.55 10.3099 138.5 11.4199C137.44 12.5199 137.07 14.2199 137.07 15.9099C137.07 17.5999 137.44 19.2999 138.5 20.4099C139.55 21.5199 141.17 21.9099 142.77 21.9099C144.37 21.9099 145.99 21.5199 147.04 20.4099C147.19 20.2499 147.32 20.0799 147.45 19.8999H151.77C151.39 21.2399 150.79 22.4499 149.88 23.3999C148.13 25.2499 145.44 25.9099 142.77 25.9099C140.1 25.9099 137.4 25.2499 135.65 23.3999C133.9 21.5499 133.27 18.7199 133.27 15.9099C133.27 13.0999 133.9 10.2699 135.65 8.41992C137.4 6.57992 140.1 5.91992 142.77 5.91992C145.44 5.91992 148.13 6.57992 149.88 8.41992C151.64 10.2699 152.27 13.0999 152.27 15.9099Z" fill="#ABB2BD"/>
<path d="M159.582 -0.499512H155.211V25.9161H159.582V-0.499512Z" fill="#ABB2BD"/>
<path d="M167.04 15.3101L174.21 25.9101H168.79L161.62 15.3101L168.79 6.81006H174.21L167.04 15.3101Z" fill="#ABB2BD"/>
</g>
<defs>
<clipPath id="clip0_296_41">
<rect width="175" height="32" fill="white"/>
</clipPath>
</defs>
</svg>
