<svg width="30" height="30" viewBox="0 0 30 30" fill="none" xmlns="http://www.w3.org/2000/svg">
<path d="M27.501 8.46867C27.249 8.34562 27.1406 8.58 26.9932 8.69914C26.9434 8.7382 26.9004 8.78898 26.8584 8.8339C26.4902 9.22844 26.0605 9.48625 25.5 9.455C24.6787 9.41008 23.9785 9.66789 23.3594 10.2968C23.2275 9.5214 22.79 9.05851 22.125 8.76164C21.7764 8.60734 21.4238 8.45304 21.1807 8.11711C21.0098 7.87883 20.9639 7.6132 20.8779 7.35148C20.8242 7.19328 20.7695 7.03117 20.5879 7.00383C20.3906 6.97258 20.3135 7.13859 20.2363 7.27726C19.9258 7.84367 19.8066 8.46867 19.8174 9.10148C19.8447 10.5233 20.4453 11.6561 21.6367 12.4628C21.7725 12.5546 21.8076 12.6483 21.7646 12.7831C21.6836 13.0604 21.5869 13.33 21.501 13.6073C21.4473 13.7851 21.3662 13.8241 21.1768 13.746C20.5225 13.4726 19.957 13.0683 19.458 12.578C18.6104 11.7577 17.8438 10.8515 16.8877 10.1425C16.6631 9.97648 16.4395 9.82219 16.207 9.6757C15.2314 8.72648 16.335 7.94719 16.5898 7.85539C16.8574 7.75969 16.6826 7.42765 15.8193 7.43156C14.957 7.43547 14.167 7.72453 13.1611 8.1093C13.0137 8.16789 12.8594 8.21086 12.7002 8.24406C11.7871 8.07219 10.8389 8.03312 9.84768 8.14445C7.98244 8.35344 6.49221 9.23625 5.3965 10.744C4.08107 12.5546 3.7715 14.6132 4.15041 16.7616C4.54885 19.0233 5.70217 20.8983 7.47561 22.3632C9.3135 23.8808 11.4307 24.6249 13.8457 24.4823C15.3125 24.3983 16.9463 24.2011 18.7881 22.6405C19.2529 22.871 19.7402 22.9628 20.5498 23.0331C21.1729 23.0917 21.7725 23.0019 22.2373 22.9061C22.9648 22.7519 22.9141 22.078 22.6514 21.953C20.5186 20.9589 20.9863 21.3632 20.5605 21.037C21.6445 19.7519 23.2783 18.4179 23.917 14.0976C23.9668 13.7538 23.9238 13.539 23.917 13.2597C23.9131 13.0917 23.9512 13.0253 24.1445 13.0058C24.6787 12.9452 25.1973 12.7987 25.6738 12.5351C27.0557 11.7792 27.6123 10.539 27.7441 9.0507C27.7637 8.82414 27.7402 8.58781 27.501 8.46867ZM15.46 21.8612C13.3926 20.2343 12.3906 19.6991 11.9766 19.7226C11.5898 19.744 11.6592 20.1874 11.7441 20.4765C11.833 20.7616 11.9492 20.9589 12.1123 21.2089C12.2246 21.3749 12.3018 21.6229 12 21.8065C11.334 22.2206 10.1768 21.6679 10.1221 21.6405C8.77541 20.8476 7.64943 19.7987 6.85549 18.3651C6.08986 16.9843 5.64455 15.5038 5.57131 13.9237C5.55178 13.5409 5.66408 13.4061 6.04299 13.3378C6.54201 13.246 7.05764 13.2265 7.55666 13.2987C9.66604 13.6073 11.4619 14.5526 12.9668 16.0468C13.8262 16.9003 14.4766 17.9179 15.1465 18.912C15.8584 19.9687 16.625 20.9745 17.6006 21.7987C17.9443 22.0878 18.2197 22.3085 18.4824 22.4706C17.6895 22.5585 16.3652 22.578 15.46 21.8612ZM16.4502 15.4804C16.4502 15.3104 16.5859 15.1757 16.7568 15.1757C16.7949 15.1757 16.8301 15.1835 16.8613 15.1952C16.9033 15.2108 16.9424 15.2343 16.9727 15.2694C17.0273 15.3222 17.0586 15.4003 17.0586 15.4804C17.0586 15.6503 16.9229 15.7851 16.7529 15.7851C16.582 15.7851 16.4502 15.6503 16.4502 15.4804ZM19.5273 17.0624C19.3301 17.1425 19.1328 17.2128 18.9434 17.2206C18.6494 17.2343 18.3281 17.1151 18.1533 16.9687C17.8828 16.7421 17.6895 16.6151 17.6074 16.2167C17.5732 16.0468 17.5928 15.7851 17.623 15.6347C17.6934 15.3104 17.6152 15.1034 17.3877 14.914C17.2012 14.7597 16.9658 14.7187 16.7061 14.7187C16.6094 14.7187 16.5205 14.6757 16.4541 14.6405C16.3457 14.5858 16.2568 14.4511 16.3418 14.2851C16.3691 14.2323 16.501 14.1015 16.5322 14.078C16.8838 13.8769 17.29 13.9433 17.666 14.0937C18.0146 14.2362 18.2773 14.4979 18.6562 14.8671C19.0439 15.3144 19.1133 15.4394 19.334 15.7733C19.5078 16.037 19.667 16.3065 19.7754 16.6151C19.8408 16.8065 19.7559 16.9647 19.5273 17.0624Z" fill="#4D6BFE"/>
</svg>
