<svg width="28" height="28" viewBox="0 0 28 28" fill="none" xmlns="http://www.w3.org/2000/svg">
<path d="M4.27777 24.2889H23.7222C24.4279 24.2889 25 23.7168 25 23.0112C25 22.3055 24.4279 21.7334 23.7222 21.7334H4.27777C3.57208 21.7334 3 22.3055 3 23.0112C3 23.7168 3.57208 24.2889 4.27777 24.2889Z" fill="#ABB2BD"/>
<path d="M13.2407 15.4H23.7222C24.4279 15.4 25 14.828 25 14.1223C25 13.4166 24.4279 12.8445 23.7222 12.8445H13.2407C12.535 12.8445 11.963 13.4166 11.963 14.1223C11.963 14.828 12.535 15.4 13.2407 15.4Z" fill="#ABB2BD"/>
<path d="M4.27777 6.55553H23.7222C24.4279 6.55553 25 5.98345 25 5.27776C25 4.57208 24.4279 4 23.7222 4H4.27777C3.57208 4 3 4.57208 3 5.27776C3 5.98345 3.57208 6.55553 4.27777 6.55553Z" fill="#ABB2BD"/>
</svg>
