<svg width="36" height="16" viewBox="0 0 36 16" fill="none" xmlns="http://www.w3.org/2000/svg"><rect width="36" height="16" rx="8" fill="url(#paint0_linear_5707_2640)" fill-opacity=".85"></rect><path d="M7.113 4.86h1.1l3.65 5.31h.04V4.86h1.09V12h-1.06l-3.69-5.37h-.04V12h-1.09V4.86zm7.285 0h5.13v.93h-4.04v2.08h3.8v.93h-3.8v2.27h4.21V12h-5.3V4.86zm5.756 0h1.23l1.39 5.56h.04l1.46-5.56h1.14l1.46 5.56h.04l1.39-5.56h1.23L27.475 12h-1.16l-1.45-5.51h-.04L23.375 12h-1.17l-2.05-7.14z" fill="#fff"></path><defs><linearGradient id="paint0_linear_5707_2640" y1="8" x2="36" y2="8" gradientUnits="userSpaceOnUse"><stop stop-color="#4D6BFE"></stop><stop offset="1" stop-color="#6948D6"></stop></linearGradient></defs></svg>