<svg width="30" height="30" viewBox="0 0 30 30" fill="none" xmlns="http://www.w3.org/2000/svg">
<path d="M21.25 30H8.75C7.75544 30 6.80161 29.6049 6.09835 28.9016C5.39509 28.1984 5 27.2446 5 26.25V3.75C5 2.75544 5.39509 1.80161 6.09835 1.09835C6.80161 0.395088 7.75544 0 8.75 0L21.25 0C22.2445 0 23.1984 0.395088 23.9016 1.09835C24.6049 1.80161 25 2.75544 25 3.75V26.25C25 27.2446 24.6049 28.1984 23.9016 28.9016C23.1984 29.6049 22.2445 30 21.25 30ZM8.75 2.49999C8.41848 2.49999 8.10053 2.63169 7.86611 2.86611C7.63169 3.10053 7.49999 3.41848 7.49999 3.75V26.25C7.49999 26.4142 7.53232 26.5767 7.59514 26.7284C7.65796 26.88 7.75004 27.0178 7.86611 27.1339C7.98218 27.25 8.11998 27.342 8.27164 27.4049C8.4233 27.4677 8.58585 27.5 8.75 27.5H21.25C21.5815 27.5 21.8994 27.3683 22.1339 27.1339C22.3683 26.8995 22.5 26.5815 22.5 26.25V3.75C22.5 3.41848 22.3683 3.10053 22.1339 2.86611C21.8994 2.63169 21.5815 2.49999 21.25 2.49999H8.75Z" fill="white"/>
<path d="M13.75 25C13.75 25.1641 13.7823 25.3267 13.8452 25.4783C13.908 25.63 14 25.7678 14.1161 25.8839C14.2322 26 14.37 26.092 14.5217 26.1549C14.6733 26.2177 14.8359 26.25 15 26.25C15.1642 26.25 15.3267 26.2177 15.4784 26.1549C15.63 26.092 15.7678 26 15.8839 25.8839C16 25.7678 16.0921 25.63 16.1549 25.4783C16.2177 25.3267 16.25 25.1641 16.25 25C16.25 24.6685 16.1183 24.3505 15.8839 24.1161C15.6495 23.8817 15.3315 23.75 15 23.75C14.6685 23.75 14.3505 23.8817 14.1161 24.1161C13.8817 24.3505 13.75 24.6685 13.75 25ZM16.25 6.24999H13.75C13.4195 6.24839 13.1031 6.11599 12.87 5.88174C12.6369 5.6475 12.506 5.33047 12.506 5C12.506 4.66952 12.6369 4.35249 12.87 4.11825C13.1031 3.884 13.4195 3.7516 13.75 3.75H16.25C16.5805 3.7516 16.8969 3.884 17.13 4.11825C17.3631 4.35249 17.494 4.66952 17.494 5C17.494 5.33047 17.3631 5.6475 17.13 5.88174C16.8969 6.11599 16.5805 6.24839 16.25 6.24999Z" fill="white"/>
</svg>
