<svg width="14" height="20" viewBox="0 0 14 20" fill="none" xmlns="http://www.w3.org/2000/svg">
<g clip-path="url(#clip0_296_60)">
<path d="M7.00002 20C5.14402 19.998 3.36502 19.3 2.05302 18.06C0.740022 16.819 0.00302252 15.137 2.2521e-05 13.383V4.82797C-0.00826577 4.19489 0.116068 3.5671 0.365023 2.98497C0.617694 2.39452 0.987479 1.86144 1.45202 1.41797C1.92681 0.96475 2.48516 0.608138 3.09602 0.367967C4.34509 -0.12526 5.73495 -0.12526 6.98402 0.367967C7.60002 0.611967 8.15802 0.967967 8.62702 1.41797C9.09602 1.86797 9.46602 2.39997 9.71502 2.98497C9.96502 3.57097 10.088 4.19697 10.079 4.82797V13.383C10.0703 13.7654 9.98423 14.1421 9.82613 14.4905C9.66803 14.8388 9.44111 15.1516 9.15902 15.41C8.57013 15.9502 7.79914 16.2483 7.00002 16.245C6.19302 16.245 5.41802 15.945 4.84202 15.41C4.55993 15.1516 4.33302 14.8388 4.17491 14.4905C4.01681 14.1421 3.93079 13.7654 3.92202 13.383V7.16297C3.91755 7.01327 3.94316 6.8642 3.99736 6.72458C4.05156 6.58497 4.13323 6.45765 4.23753 6.35018C4.34184 6.24271 4.46665 6.15727 4.60459 6.09893C4.74252 6.04058 4.89076 6.01052 5.04052 6.01052C5.19029 6.01052 5.33853 6.04058 5.47646 6.09893C5.61439 6.15727 5.73921 6.24271 5.84351 6.35018C5.94782 6.45765 6.02949 6.58497 6.08368 6.72458C6.13788 6.8642 6.1635 7.01327 6.15902 7.16297V13.383C6.16302 13.4866 6.18773 13.5884 6.2317 13.6824C6.27567 13.7763 6.338 13.8605 6.41502 13.93C6.57534 14.0748 6.78394 14.1547 7.00002 14.154C7.21902 14.154 7.42902 14.074 7.58602 13.93C7.66293 13.8606 7.72519 13.7766 7.76915 13.6828C7.81311 13.5891 7.83789 13.4874 7.84202 13.384V4.82797C7.84834 4.47515 7.78054 4.12494 7.64302 3.79997C7.50323 3.47 7.29772 3.17195 7.03902 2.92397C6.77504 2.67073 6.46425 2.47135 6.12402 2.33697C5.42769 2.06109 4.65236 2.06109 3.95602 2.33697C3.61544 2.47123 3.3043 2.67062 3.04002 2.92397C2.78132 3.17195 2.57581 3.47 2.43602 3.79997C2.29884 4.12501 2.23139 4.47522 2.23802 4.82797V13.383C2.23802 14.577 2.73902 15.722 3.63202 16.566C4.54572 17.4185 5.75034 17.8903 7.00002 17.885C8.24936 17.8901 9.45358 17.4183 10.367 16.566C10.8043 16.1586 11.1537 15.6661 11.3936 15.1187C11.6335 14.5713 11.7589 13.9806 11.762 13.383V7.16297C11.7707 6.87211 11.8924 6.59608 12.1012 6.39342C12.31 6.19076 12.5895 6.07741 12.8805 6.07741C13.1715 6.07741 13.451 6.19076 13.6599 6.39342C13.8687 6.59608 13.9903 6.87211 13.999 7.16297V13.383C13.997 15.137 13.259 16.819 11.947 18.06C10.635 19.3 8.85602 19.998 7.00002 20Z" fill="#ABB2BD"/>
</g>
<defs>
<clipPath id="clip0_296_60">
<rect width="14" height="20" fill="white"/>
</clipPath>
</defs>
</svg>
