<svg width="34" height="35" viewBox="0 0 34 35" fill="none" xmlns="http://www.w3.org/2000/svg">
<g clip-path="url(#clip0_296_38)">
<path d="M17 34.895C26.298 34.895 34 27.209 34 17.895C34 8.59602 26.298 0.89502 16.983 0.89502C7.685 0.89502 0 8.59602 0 17.895C0 27.209 7.702 34.895 17 34.895ZM17 20.593C13.774 20.577 11.273 17.878 11.273 14.323C11.257 10.966 13.791 8.16802 17 8.16802C20.193 8.16802 22.71 10.966 22.71 14.323C22.71 17.878 20.21 20.626 17 20.593ZM17 32.113C13.314 32.113 9.397 30.583 6.912 27.9C8.788 25.07 12.557 23.44 17 23.44C21.394 23.44 25.18 25.037 27.072 27.9C24.587 30.583 20.686 32.113 17 32.113Z" fill="#ABB2BD"/>
</g>
<defs>
<clipPath id="clip0_296_38">
<rect width="34" height="35" fill="white"/>
</clipPath>
</defs>
</svg>
