<svg width="30" height="30" viewBox="0 0 30 30" fill="none" xmlns="http://www.w3.org/2000/svg">
<g clip-path="url(#clip0_296_14)">
<mask id="mask0_296_14" style="mask-type:luminance" maskUnits="userSpaceOnUse" x="0" y="0" width="30" height="30">
<path d="M30 0H0V30H30V0Z" fill="white"/>
</mask>
<g mask="url(#mask0_296_14)">
<path d="M15.2347 14.2877L12.3067 17.003C11.9013 17.3789 11.8775 18.0122 12.2534 18.4175C12.6293 18.8229 13.2626 18.8468 13.6679 18.4709L16.596 15.7556C17.0013 15.3797 17.0252 14.7464 16.6493 14.341C16.2734 13.9357 15.6401 13.9118 15.2347 14.2877Z" fill="#ABB2BD"/>
<path d="M12.2459 12.9958L15.2809 15.6205C15.6967 15.98 16.3251 15.9345 16.6847 15.5187C17.0442 15.103 16.9986 14.4745 16.5829 14.115L13.5478 11.4903C13.1321 11.1308 12.5036 11.1764 12.1441 11.5921C11.7846 12.0078 11.8301 12.6363 12.2459 12.9958Z" fill="#ABB2BD"/>
<path d="M20.09 25.48L9.88999 25.5C9.46999 25.5 9.04999 25.45 8.63999 25.37C8.22999 25.29 7.82999 25.17 7.43999 25C7.04999 24.84 6.67999 24.64 6.32999 24.41C5.97999 24.18 5.65999 23.91 5.35999 23.61C5.06999 23.31 4.79999 22.99 4.56999 22.64C4.33999 22.29 4.13999 21.92 3.97999 21.53C3.81999 21.14 3.68999 20.74 3.60999 20.32C3.52999 19.91 3.48999 19.49 3.48999 19.07V10.92C3.48999 10.5 3.52999 10.08 3.60999 9.66998C3.68999 9.24998 3.81999 8.84998 3.97999 8.45998C4.13999 8.06998 4.33999 7.69998 4.56999 7.34998C4.79999 6.99998 5.06999 6.67998 5.35999 6.37998C5.65999 6.07998 5.97999 5.80998 6.32999 5.57998C6.67999 5.34998 7.04999 5.14998 7.43999 4.98998C7.82999 4.81998 8.22999 4.69998 8.63999 4.61998C9.04999 4.53998 9.46999 4.49998 9.88999 4.49998L20.09 4.47998C20.51 4.47998 20.93 4.51998 21.34 4.59998C21.75 4.68998 22.15 4.80998 22.54 4.96998C22.93 5.12998 23.3 5.32998 23.65 5.56998C24 5.79998 24.32 6.05998 24.62 6.35998C24.92 6.65998 25.18 6.97998 25.41 7.32998C25.65 7.68998 25.84 8.05998 26.01 8.44998C26.17 8.83998 26.29 9.23998 26.37 9.64998C26.45 10.06 26.49 10.48 26.5 10.91V19.06C26.49 19.48 26.45 19.89 26.37 20.31C26.29 20.72 26.17 21.12 26.01 21.51C25.84 21.9 25.65 22.27 25.41 22.62C25.18 22.97 24.92 23.3 24.62 23.6C24.32 23.89 24 24.16 23.65 24.39C23.3 24.63 22.93 24.83 22.54 24.99C22.15 25.15 21.75 25.27 21.34 25.35C20.93 25.44 20.51 25.48 20.09 25.48ZM9.88999 6.58998C9.60999 6.58998 9.31999 6.61998 9.04999 6.66998C8.76999 6.72998 8.49999 6.80998 8.23999 6.91998C7.97999 7.02998 7.72999 7.15998 7.48999 7.31998C7.25999 7.47998 7.03999 7.65998 6.83999 7.85998C6.63999 8.05998 6.45999 8.27998 6.29999 8.50998C6.13999 8.74998 6.00999 8.99998 5.89999 9.25998C5.78999 9.51998 5.70999 9.79998 5.65999 10.07C5.59999 10.35 5.56999 10.63 5.56999 10.92V19.07C5.56999 19.36 5.59999 19.64 5.65999 19.92C5.70999 20.19 5.78999 20.47 5.89999 20.73C6.00999 20.99 6.13999 21.24 6.29999 21.48C6.45999 21.71 6.63999 21.93 6.83999 22.13C7.03999 22.33 7.25999 22.51 7.48999 22.67C7.72999 22.83 7.97999 22.96 8.23999 23.07C8.49999 23.18 8.76999 23.26 9.04999 23.32C9.31999 23.37 9.60999 23.4 9.88999 23.4L20.09 23.39C20.38 23.39 20.66 23.36 20.94 23.3C21.21 23.25 21.48 23.17 21.75 23.06C22.01 22.95 22.26 22.81 22.49 22.66C22.73 22.5 22.95 22.32 23.15 22.12C23.35 21.91 23.52 21.7 23.68 21.46C23.84 21.22 23.97 20.98 24.08 20.71C24.19 20.45 24.27 20.18 24.33 19.9C24.38 19.62 24.41 19.34 24.41 19.06V10.91C24.41 10.62 24.38 10.34 24.33 10.06C24.27 9.77998 24.19 9.50998 24.08 9.24998C23.97 8.97998 23.84 8.73998 23.68 8.49998C23.52 8.25998 23.35 8.03998 23.15 7.83998C22.95 7.63998 22.73 7.45998 22.49 7.29998C22.26 7.14998 22.01 7.00998 21.75 6.89998C21.48 6.78998 21.21 6.70998 20.94 6.65998C20.66 6.59998 20.38 6.56998 20.09 6.56998L9.88999 6.58998Z" fill="#ABB2BD"/>
<path fill-rule="evenodd" clip-rule="evenodd" d="M8.48999 5.5H10.53L10.59 24.41H8.53999L8.48999 5.5Z" fill="#ABB2BD"/>
</g>
</g>
<defs>
<clipPath id="clip0_296_14">
<rect width="30" height="30" fill="white"/>
</clipPath>
</defs>
</svg>
